<svg xmlns="http://www.w3.org/2000/svg" width="32px" height="32px" viewBox="0 -960 960 960" fill="#000000"><path d="M292-172v-28h174v-120H192q-26 0-43-17t-17-43v-348q0-26 17-43t43-17h576q26 0 43 17t17 43v348q0 26-17 43t-43 17H494v120h174v28H292ZM160-380q0 12 10 22t22 10h576q12 0 22-10t10-22v-348q0-12-10-22t-22-10H192q-12 0-22 10t-10 22v348Zm0 0v-380 412-32Z"/><path d="m 381.7857,-400.54281 v -302.06733 l 237.10659,151.03366 z m 22.73625,-151.03367 z m 0,108.80921 172.14586,-108.80921 -172.14586,-108.8092 z"/></svg>
